# xmcd
#
# Track frame offsets:
#	150
#	19075
#	35890
#	58552
#
# Disc length: 1200 seconds
#
# Revision: 1
# Processed by: cddbd v1.5.2PL0 Copyright (c) Steve Scherf et al.
# Submitted via: audiograbber 1.83.01
#
DISCID=2f04ae04
DTITLE=merdith brooks - i need
DYEAR=1997
DGENRE=Rock
TTITLE0=i need (remix)
TTITLE1=every time she walks away
TTITLE2=i need (crusty remix)
TTITLE3=bitch (e-tem/m2000 crazy bitch remix)
EXTD=
EXTT0=
EXTT1=
EXTT2=
EXTT3=
PLAYORDER=
